<svg width="51" height="36" viewBox="0 0 51 36" fill="none" xmlns="http://www.w3.org/2000/svg">
<path d="M43 30.89L40.7862 33.1038C38.3106 35.5795 35.5969 36 32.3357 36C29.0824 36 26.5036 34.0719 24.028 31.5962L11.4038 18.972C8.92021 16.4964 7 13.9176 7 10.6643C7 7.41106 7.41261 4.69738 9.89619 2.2138L12.11 0L19.9575 8.67269L15.8235 13.3542C15.5854 13.5843 15.4664 13.9017 15.4664 14.227C15.4664 14.5444 15.5854 14.8618 15.8235 15.0998L27.9002 27.1765C28.1303 27.4067 28.4477 27.5336 28.773 27.5336C29.0904 27.5336 29.4078 27.4146 29.6458 27.1765L34.3273 23.0425L43 30.89Z" fill="white"/>
</svg>
